<svg class="main-svg" xmlns="http://www.w3.org/2000/svg" xmlns:xlink="http://www.w3.org/1999/xlink" width="800" height="600" style="" viewBox="0 0 800 600"><rect x="0" y="0" width="800" height="600" style="fill: rgb(255, 255, 255); fill-opacity: 1;"/><defs id="defs-9c2841"><g class="clips"><clipPath id="clip9c2841xyplot" class="plotclip"><rect width="587" height="420"/></clipPath><clipPath class="axesclip" id="clip9c2841x"><rect x="80" y="0" width="587" height="600"/></clipPath><clipPath class="axesclip" id="clip9c2841y"><rect x="0" y="100" width="800" height="420"/></clipPath><clipPath class="axesclip" id="clip9c2841xy"><rect x="80" y="100" width="587" height="420"/></clipPath></g><g class="gradients"/><g class="patterns"/></defs><g class="bglayer"/><g class="layer-below"><g class="imagelayer"/><g class="shapelayer"/></g><g class="cartesianlayer"><g class="subplot xy"><g class="layer-subplot"><g class="shapelayer"/><g class="imagelayer"/></g><g class="minor-gridlayer"><g class="x"/><g class="y"/></g><g class="gridlayer"><g class="x"/><g class="y"/></g><g class="zerolinelayer"/><g class="layer-between"><g class="shapelayer"/><g class="imagelayer"/></g><path class="xlines-below"/><path class="ylines-below"/><g class="overlines-below"/><g class="xaxislayer-below"/><g class="yaxislayer-below"/><g class="overaxes-below"/><g class="overplot"><g class="xy" transform="translate(80,100)" clip-path="url(#clip9c2841xyplot)"><g class="scatterlayer mlayer"><g class="trace scatter trace347112" style="stroke-miterlimit: 2; opacity: 1;"><g class="fills"/><g class="errorbars"/><g class="lines"/><g class="points"><path class="point plotly-customdata" transform="translate(341.59,267.19)" style="opacity: 0.8; stroke-width: 0px; fill: rgb(31, 119, 180); fill-opacity: 1;" d="M2.5,0A2.5,2.5 0 1,1 0,-2.5A2.5,2.5 0 0,1 2.5,0Z"/><path class="point plotly-customdata" transform="translate(321.85,96.84)" style="opacity: 0.8; stroke-width: 0px; fill: rgb(31, 119, 180); fill-opacity: 1;" d="M2.5,0A2.5,2.5 0 1,1 0,-2.5A2.5,2.5 0 0,1 2.5,0Z"/><path class="point plotly-customdata" transform="translate(315.44,38.73)" style="opacity: 0.8; stroke-width: 0px; fill: rgb(31, 119, 180); fill-opacity: 1;" d="M2.5,0A2.5,2.5 0 1,1 0,-2.5A2.5,2.5 0 0,1 2.5,0Z"/><path class="point plotly-customdata" transform="translate(308.4,30.7)" style="opacity: 0.8; stroke-width: 0px; fill: rgb(31, 119, 180); fill-opacity: 1;" d="M2.5,0A2.5,2.5 0 1,1 0,-2.5A2.5,2.5 0 0,1 2.5,0Z"/><path class="point plotly-customdata" transform="translate(302.85,63.05)" style="opacity: 0.8; stroke-width: 0px; fill: rgb(31, 119, 180); fill-opacity: 1;" d="M2.5,0A2.5,2.5 0 1,1 0,-2.5A2.5,2.5 0 0,1 2.5,0Z"/><path class="point plotly-customdata" transform="translate(323.78,27.66)" style="opacity: 0.8; stroke-width: 0px; fill: rgb(31, 119, 180); fill-opacity: 1;" d="M2.5,0A2.5,2.5 0 1,1 0,-2.5A2.5,2.5 0 0,1 2.5,0Z"/><path class="point plotly-customdata" transform="translate(325.4,42.17)" style="opacity: 0.8; stroke-width: 0px; fill: rgb(31, 119, 180); fill-opacity: 1;" d="M2.5,0A2.5,2.5 0 1,1 0,-2.5A2.5,2.5 0 0,1 2.5,0Z"/><path class="point plotly-customdata" transform="translate(283.03,83.94)" style="opacity: 0.8; stroke-width: 0px; fill: rgb(31, 119, 180); fill-opacity: 1;" d="M2.5,0A2.5,2.5 0 1,1 0,-2.5A2.5,2.5 0 0,1 2.5,0Z"/><path class="point plotly-customdata" transform="translate(351,84.75)" style="opacity: 0.8; stroke-width: 0px; fill: rgb(31, 119, 180); fill-opacity: 1;" d="M2.5,0A2.5,2.5 0 1,1 0,-2.5A2.5,2.5 0 0,1 2.5,0Z"/><path class="point plotly-customdata" transform="translate(315.45,30.18)" style="opacity: 0.8; stroke-width: 0px; fill: rgb(31, 119, 180); fill-opacity: 1;" d="M2.5,0A2.5,2.5 0 1,1 0,-2.5A2.5,2.5 0 0,1 2.5,0Z"/><path class="point plotly-customdata" transform="translate(306.89,27.38)" style="opacity: 0.8; stroke-width: 0px; fill: rgb(31, 119, 180); fill-opacity: 1;" d="M2.5,0A2.5,2.5 0 1,1 0,-2.5A2.5,2.5 0 0,1 2.5,0Z"/><path class="point plotly-customdata" transform="translate(318,54.77)" style="opacity: 0.8; stroke-width: 0px; fill: rgb(31, 119, 180); fill-opacity: 1;" d="M2.5,0A2.5,2.5 0 1,1 0,-2.5A2.5,2.5 0 0,1 2.5,0Z"/><path class="point plotly-customdata" transform="translate(335.91,72.96)" style="opacity: 0.8; stroke-width: 0px; fill: rgb(31, 119, 180); fill-opacity: 1;" d="M2.5,0A2.5,2.5 0 1,1 0,-2.5A2.5,2.5 0 0,1 2.5,0Z"/><path class="point plotly-customdata" transform="translate(324.95,83.26)" style="opacity: 0.8; stroke-width: 0px; fill: rgb(31, 119, 180); fill-opacity: 1;" d="M2.5,0A2.5,2.5 0 1,1 0,-2.5A2.5,2.5 0 0,1 2.5,0Z"/><path class="point plotly-customdata" transform="translate(377.98,81.12)" style="opacity: 0.8; stroke-width: 0px; fill: rgb(31, 119, 180); fill-opacity: 1;" d="M2.5,0A2.5,2.5 0 1,1 0,-2.5A2.5,2.5 0 0,1 2.5,0Z"/><path class="point plotly-customdata" transform="translate(347.85,30.07)" style="opacity: 0.8; stroke-width: 0px; fill: rgb(31, 119, 180); fill-opacity: 1;" d="M2.5,0A2.5,2.5 0 1,1 0,-2.5A2.5,2.5 0 0,1 2.5,0Z"/><path class="point plotly-customdata" transform="translate(317.4,44.24)" style="opacity: 0.8; stroke-width: 0px; fill: rgb(31, 119, 180); fill-opacity: 1;" d="M2.5,0A2.5,2.5 0 1,1 0,-2.5A2.5,2.5 0 0,1 2.5,0Z"/><path class="point plotly-customdata" transform="translate(328.29,57.59)" style="opacity: 0.8; stroke-width: 0px; fill: rgb(31, 119, 180); fill-opacity: 1;" d="M2.5,0A2.5,2.5 0 1,1 0,-2.5A2.5,2.5 0 0,1 2.5,0Z"/><path class="point plotly-customdata" transform="translate(301.76,44.14)" style="opacity: 0.8; stroke-width: 0px; fill: rgb(31, 119, 180); fill-opacity: 1;" d="M2.5,0A2.5,2.5 0 1,1 0,-2.5A2.5,2.5 0 0,1 2.5,0Z"/><path class="point plotly-customdata" transform="translate(324.54,78.86)" style="opacity: 0.8; stroke-width: 0px; fill: rgb(31, 119, 180); fill-opacity: 1;" d="M2.5,0A2.5,2.5 0 1,1 0,-2.5A2.5,2.5 0 0,1 2.5,0Z"/><path class="point plotly-customdata" transform="translate(299.72,53.53)" style="opacity: 0.8; stroke-width: 0px; fill: rgb(31, 119, 180); fill-opacity: 1;" d="M2.5,0A2.5,2.5 0 1,1 0,-2.5A2.5,2.5 0 0,1 2.5,0Z"/><path class="point plotly-customdata" transform="translate(302.72,42.78)" style="opacity: 0.8; stroke-width: 0px; fill: rgb(31, 119, 180); fill-opacity: 1;" d="M2.5,0A2.5,2.5 0 1,1 0,-2.5A2.5,2.5 0 0,1 2.5,0Z"/><path class="point plotly-customdata" transform="translate(308.96,40.3)" style="opacity: 0.8; stroke-width: 0px; fill: rgb(31, 119, 180); fill-opacity: 1;" d="M2.5,0A2.5,2.5 0 1,1 0,-2.5A2.5,2.5 0 0,1 2.5,0Z"/><path class="point plotly-customdata" transform="translate(311.68,42.07)" style="opacity: 0.8; stroke-width: 0px; fill: rgb(31, 119, 180); fill-opacity: 1;" d="M2.5,0A2.5,2.5 0 1,1 0,-2.5A2.5,2.5 0 0,1 2.5,0Z"/><path class="point plotly-customdata" transform="translate(321.56,71.75)" style="opacity: 0.8; stroke-width: 0px; fill: rgb(31, 119, 180); fill-opacity: 1;" d="M2.5,0A2.5,2.5 0 1,1 0,-2.5A2.5,2.5 0 0,1 2.5,0Z"/><path class="point plotly-customdata" transform="translate(305.95,72.63)" style="opacity: 0.8; stroke-width: 0px; fill: rgb(31, 119, 180); fill-opacity: 1;" d="M2.5,0A2.5,2.5 0 1,1 0,-2.5A2.5,2.5 0 0,1 2.5,0Z"/><path class="point plotly-customdata" transform="translate(299.32,46.95)" style="opacity: 0.8; stroke-width: 0px; fill: rgb(31, 119, 180); fill-opacity: 1;" d="M2.5,0A2.5,2.5 0 1,1 0,-2.5A2.5,2.5 0 0,1 2.5,0Z"/><path class="point plotly-customdata" transform="translate(306.78,48.97)" style="opacity: 0.8; stroke-width: 0px; fill: rgb(31, 119, 180); fill-opacity: 1;" d="M2.5,0A2.5,2.5 0 1,1 0,-2.5A2.5,2.5 0 0,1 2.5,0Z"/><path class="point plotly-customdata" transform="translate(323.88,63.09)" style="opacity: 0.8; stroke-width: 0px; fill: rgb(31, 119, 180); fill-opacity: 1;" d="M2.5,0A2.5,2.5 0 1,1 0,-2.5A2.5,2.5 0 0,1 2.5,0Z"/><path class="point plotly-customdata" transform="translate(326.82,95.18)" style="opacity: 0.8; stroke-width: 0px; fill: rgb(31, 119, 180); fill-opacity: 1;" d="M2.5,0A2.5,2.5 0 1,1 0,-2.5A2.5,2.5 0 0,1 2.5,0Z"/><path class="point plotly-customdata" transform="translate(334.66,82.82)" style="opacity: 0.8; stroke-width: 0px; fill: rgb(31, 119, 180); fill-opacity: 1;" d="M2.5,0A2.5,2.5 0 1,1 0,-2.5A2.5,2.5 0 0,1 2.5,0Z"/><path class="point plotly-customdata" transform="translate(308.16,76.33)" style="opacity: 0.8; stroke-width: 0px; fill: rgb(31, 119, 180); fill-opacity: 1;" d="M2.5,0A2.5,2.5 0 1,1 0,-2.5A2.5,2.5 0 0,1 2.5,0Z"/><path class="point plotly-customdata" transform="translate(316.37,126.49)" style="opacity: 0.8; stroke-width: 0px; fill: rgb(31, 119, 180); fill-opacity: 1;" d="M2.5,0A2.5,2.5 0 1,1 0,-2.5A2.5,2.5 0 0,1 2.5,0Z"/><path class="point plotly-customdata" transform="translate(292.97,51.46)" style="opacity: 0.8; stroke-width: 0px; fill: rgb(31, 119, 180); fill-opacity: 1;" d="M2.5,0A2.5,2.5 0 1,1 0,-2.5A2.5,2.5 0 0,1 2.5,0Z"/><path class="point plotly-customdata" transform="translate(312.22,83.1)" style="opacity: 0.8; stroke-width: 0px; fill: rgb(31, 119, 180); fill-opacity: 1;" d="M2.5,0A2.5,2.5 0 1,1 0,-2.5A2.5,2.5 0 0,1 2.5,0Z"/><path class="point plotly-customdata" transform="translate(287.4,38.92)" style="opacity: 0.8; stroke-width: 0px; fill: rgb(31, 119, 180); fill-opacity: 1;" d="M2.5,0A2.5,2.5 0 1,1 0,-2.5A2.5,2.5 0 0,1 2.5,0Z"/><path class="point plotly-customdata" transform="translate(306.54,49.79)" style="opacity: 0.8; stroke-width: 0px; fill: rgb(31, 119, 180); fill-opacity: 1;" d="M2.5,0A2.5,2.5 0 1,1 0,-2.5A2.5,2.5 0 0,1 2.5,0Z"/><path class="point plotly-customdata" transform="translate(301.35,50.39)" style="opacity: 0.8; stroke-width: 0px; fill: rgb(31, 119, 180); fill-opacity: 1;" d="M2.5,0A2.5,2.5 0 1,1 0,-2.5A2.5,2.5 0 0,1 2.5,0Z"/><path class="point plotly-customdata" transform="translate(289.55,34.73)" style="opacity: 0.8; stroke-width: 0px; fill: rgb(31, 119, 180); fill-opacity: 1;" d="M2.5,0A2.5,2.5 0 1,1 0,-2.5A2.5,2.5 0 0,1 2.5,0Z"/><path class="point plotly-customdata" transform="translate(299.33,46.41)" style="opacity: 0.8; stroke-width: 0px; fill: rgb(31, 119, 180); fill-opacity: 1;" d="M2.5,0A2.5,2.5 0 1,1 0,-2.5A2.5,2.5 0 0,1 2.5,0Z"/><path class="point plotly-customdata" transform="translate(302.39,30.61)" style="opacity: 0.8; stroke-width: 0px; fill: rgb(31, 119, 180); fill-opacity: 1;" d="M2.5,0A2.5,2.5 0 1,1 0,-2.5A2.5,2.5 0 0,1 2.5,0Z"/><path class="point plotly-customdata" transform="translate(301.26,32.72)" style="opacity: 0.8; stroke-width: 0px; fill: rgb(31, 119, 180); fill-opacity: 1;" d="M2.5,0A2.5,2.5 0 1,1 0,-2.5A2.5,2.5 0 0,1 2.5,0Z"/><path class="point plotly-customdata" transform="translate(303.22,24.13)" style="opacity: 0.8; stroke-width: 0px; fill: rgb(31, 119, 180); fill-opacity: 1;" d="M2.5,0A2.5,2.5 0 1,1 0,-2.5A2.5,2.5 0 0,1 2.5,0Z"/><path class="point plotly-customdata" transform="translate(313.14,108.31)" style="opacity: 0.8; stroke-width: 0px; fill: rgb(31, 119, 180); fill-opacity: 1;" d="M2.5,0A2.5,2.5 0 1,1 0,-2.5A2.5,2.5 0 0,1 2.5,0Z"/><path class="point plotly-customdata" transform="translate(300.89,56.34)" style="opacity: 0.8; stroke-width: 0px; fill: rgb(31, 119, 180); fill-opacity: 1;" d="M2.5,0A2.5,2.5 0 1,1 0,-2.5A2.5,2.5 0 0,1 2.5,0Z"/><path class="point plotly-customdata" transform="translate(300.35,64.15)" style="opacity: 0.8; stroke-width: 0px; fill: rgb(31, 119, 180); fill-opacity: 1;" d="M2.5,0A2.5,2.5 0 1,1 0,-2.5A2.5,2.5 0 0,1 2.5,0Z"/><path class="point plotly-customdata" transform="translate(311.29,64.13)" style="opacity: 0.8; stroke-width: 0px; fill: rgb(31, 119, 180); fill-opacity: 1;" d="M2.5,0A2.5,2.5 0 1,1 0,-2.5A2.5,2.5 0 0,1 2.5,0Z"/><path class="point plotly-customdata" transform="translate(280.62,151.13)" style="opacity: 0.8; stroke-width: 0px; fill: rgb(31, 119, 180); fill-opacity: 1;" d="M2.5,0A2.5,2.5 0 1,1 0,-2.5A2.5,2.5 0 0,1 2.5,0Z"/><path class="point plotly-customdata" transform="translate(210.59,379.81)" style="opacity: 0.8; stroke-width: 0px; fill: rgb(31, 119, 180); fill-opacity: 1;" d="M2.5,0A2.5,2.5 0 1,1 0,-2.5A2.5,2.5 0 0,1 2.5,0Z"/><path class="point plotly-customdata" transform="translate(323.87,195.72)" style="opacity: 0.8; stroke-width: 0px; fill: rgb(31, 119, 180); fill-opacity: 1;" d="M2.5,0A2.5,2.5 0 1,1 0,-2.5A2.5,2.5 0 0,1 2.5,0Z"/><path class="point plotly-customdata" transform="translate(316.03,64.5)" style="opacity: 0.8; stroke-width: 0px; fill: rgb(31, 119, 180); fill-opacity: 1;" d="M2.5,0A2.5,2.5 0 1,1 0,-2.5A2.5,2.5 0 0,1 2.5,0Z"/><path class="point plotly-customdata" transform="translate(315.6,96.36)" style="opacity: 0.8; stroke-width: 0px; fill: rgb(31, 119, 180); fill-opacity: 1;" d="M2.5,0A2.5,2.5 0 1,1 0,-2.5A2.5,2.5 0 0,1 2.5,0Z"/></g><g class="text"/></g><g class="trace scatter trace7883de" style="stroke-miterlimit: 2; opacity: 1;"><g class="fills"/><g class="errorbars"/><g class="lines"/><g class="points"><path class="point plotly-customdata" transform="translate(299.93,37.98)" style="opacity: 0.8; stroke-width: 0px; fill: rgb(255, 127, 14); fill-opacity: 1;" d="M2.5,0A2.5,2.5 0 1,1 0,-2.5A2.5,2.5 0 0,1 2.5,0Z"/><path class="point plotly-customdata" transform="translate(329.74,36.28)" style="opacity: 0.8; stroke-width: 0px; fill: rgb(255, 127, 14); fill-opacity: 1;" d="M2.5,0A2.5,2.5 0 1,1 0,-2.5A2.5,2.5 0 0,1 2.5,0Z"/><path class="point plotly-customdata" transform="translate(349.79,36.85)" style="opacity: 0.8; stroke-width: 0px; fill: rgb(255, 127, 14); fill-opacity: 1;" d="M2.5,0A2.5,2.5 0 1,1 0,-2.5A2.5,2.5 0 0,1 2.5,0Z"/><path class="point plotly-customdata" transform="translate(358.99,50.81)" style="opacity: 0.8; stroke-width: 0px; fill: rgb(255, 127, 14); fill-opacity: 1;" d="M2.5,0A2.5,2.5 0 1,1 0,-2.5A2.5,2.5 0 0,1 2.5,0Z"/><path class="point plotly-customdata" transform="translate(360.65,108.52)" style="opacity: 0.8; stroke-width: 0px; fill: rgb(255, 127, 14); fill-opacity: 1;" d="M2.5,0A2.5,2.5 0 1,1 0,-2.5A2.5,2.5 0 0,1 2.5,0Z"/><path class="point plotly-customdata" transform="translate(344.05,101.18)" style="opacity: 0.8; stroke-width: 0px; fill: rgb(255, 127, 14); fill-opacity: 1;" d="M2.5,0A2.5,2.5 0 1,1 0,-2.5A2.5,2.5 0 0,1 2.5,0Z"/><path class="point plotly-customdata" transform="translate(352.57,112.32)" style="opacity: 0.8; stroke-width: 0px; fill: rgb(255, 127, 14); fill-opacity: 1;" d="M2.5,0A2.5,2.5 0 1,1 0,-2.5A2.5,2.5 0 0,1 2.5,0Z"/><path class="point plotly-customdata" transform="translate(358.7,50.82)" style="opacity: 0.8; stroke-width: 0px; fill: rgb(255, 127, 14); fill-opacity: 1;" d="M2.5,0A2.5,2.5 0 1,1 0,-2.5A2.5,2.5 0 0,1 2.5,0Z"/><path class="point plotly-customdata" transform="translate(381.94,97.55)" style="opacity: 0.8; stroke-width: 0px; fill: rgb(255, 127, 14); fill-opacity: 1;" d="M2.5,0A2.5,2.5 0 1,1 0,-2.5A2.5,2.5 0 0,1 2.5,0Z"/><path class="point plotly-customdata" transform="translate(351.03,103.01)" style="opacity: 0.8; stroke-width: 0px; fill: rgb(255, 127, 14); fill-opacity: 1;" d="M2.5,0A2.5,2.5 0 1,1 0,-2.5A2.5,2.5 0 0,1 2.5,0Z"/><path class="point plotly-customdata" transform="translate(347.98,52.97)" style="opacity: 0.8; stroke-width: 0px; fill: rgb(255, 127, 14); fill-opacity: 1;" d="M2.5,0A2.5,2.5 0 1,1 0,-2.5A2.5,2.5 0 0,1 2.5,0Z"/><path class="point plotly-customdata" transform="translate(366.55,78.47)" style="opacity: 0.8; stroke-width: 0px; fill: rgb(255, 127, 14); fill-opacity: 1;" d="M2.5,0A2.5,2.5 0 1,1 0,-2.5A2.5,2.5 0 0,1 2.5,0Z"/><path class="point plotly-customdata" transform="translate(352.47,33.66)" style="opacity: 0.8; stroke-width: 0px; fill: rgb(255, 127, 14); fill-opacity: 1;" d="M2.5,0A2.5,2.5 0 1,1 0,-2.5A2.5,2.5 0 0,1 2.5,0Z"/><path class="point plotly-customdata" transform="translate(348.41,37.75)" style="opacity: 0.8; stroke-width: 0px; fill: rgb(255, 127, 14); fill-opacity: 1;" d="M2.5,0A2.5,2.5 0 1,1 0,-2.5A2.5,2.5 0 0,1 2.5,0Z"/><path class="point plotly-customdata" transform="translate(359.58,64.13)" style="opacity: 0.8; stroke-width: 0px; fill: rgb(255, 127, 14); fill-opacity: 1;" d="M2.5,0A2.5,2.5 0 1,1 0,-2.5A2.5,2.5 0 0,1 2.5,0Z"/><path class="point plotly-customdata" transform="translate(363.93,68.04)" style="opacity: 0.8; stroke-width: 0px; fill: rgb(255, 127, 14); fill-opacity: 1;" d="M2.5,0A2.5,2.5 0 1,1 0,-2.5A2.5,2.5 0 0,1 2.5,0Z"/><path class="point plotly-customdata" transform="translate(345.32,88.05)" style="opacity: 0.8; stroke-width: 0px; fill: rgb(255, 127, 14); fill-opacity: 1;" d="M2.5,0A2.5,2.5 0 1,1 0,-2.5A2.5,2.5 0 0,1 2.5,0Z"/><path class="point plotly-customdata" transform="translate(349.21,34.94)" style="opacity: 0.8; stroke-width: 0px; fill: rgb(255, 127, 14); fill-opacity: 1;" d="M2.5,0A2.5,2.5 0 1,1 0,-2.5A2.5,2.5 0 0,1 2.5,0Z"/><path class="point plotly-customdata" transform="translate(355.64,101.87)" style="opacity: 0.8; stroke-width: 0px; fill: rgb(255, 127, 14); fill-opacity: 1;" d="M2.5,0A2.5,2.5 0 1,1 0,-2.5A2.5,2.5 0 0,1 2.5,0Z"/><path class="point plotly-customdata" transform="translate(345.2,47.44)" style="opacity: 0.8; stroke-width: 0px; fill: rgb(255, 127, 14); fill-opacity: 1;" d="M2.5,0A2.5,2.5 0 1,1 0,-2.5A2.5,2.5 0 0,1 2.5,0Z"/><path class="point plotly-customdata" transform="translate(345.57,32.47)" style="opacity: 0.8; stroke-width: 0px; fill: rgb(255, 127, 14); fill-opacity: 1;" d="M2.5,0A2.5,2.5 0 1,1 0,-2.5A2.5,2.5 0 0,1 2.5,0Z"/><path class="point plotly-customdata" transform="translate(354.65,68.85)" style="opacity: 0.8; stroke-width: 0px; fill: rgb(255, 127, 14); fill-opacity: 1;" d="M2.5,0A2.5,2.5 0 1,1 0,-2.5A2.5,2.5 0 0,1 2.5,0Z"/><path class="point plotly-customdata" transform="translate(330.37,92.82)" style="opacity: 0.8; stroke-width: 0px; fill: rgb(255, 127, 14); fill-opacity: 1;" d="M2.5,0A2.5,2.5 0 1,1 0,-2.5A2.5,2.5 0 0,1 2.5,0Z"/><path class="point plotly-customdata" transform="translate(367.51,69.47)" style="opacity: 0.8; stroke-width: 0px; fill: rgb(255, 127, 14); fill-opacity: 1;" d="M2.5,0A2.5,2.5 0 1,1 0,-2.5A2.5,2.5 0 0,1 2.5,0Z"/><path class="point plotly-customdata" transform="translate(341.25,97.87)" style="opacity: 0.8; stroke-width: 0px; fill: rgb(255, 127, 14); fill-opacity: 1;" d="M2.5,0A2.5,2.5 0 1,1 0,-2.5A2.5,2.5 0 0,1 2.5,0Z"/><path class="point plotly-customdata" transform="translate(370.9,67.08)" style="opacity: 0.8; stroke-width: 0px; fill: rgb(255, 127, 14); fill-opacity: 1;" d="M2.5,0A2.5,2.5 0 1,1 0,-2.5A2.5,2.5 0 0,1 2.5,0Z"/><path class="point plotly-customdata" transform="translate(350.24,47.32)" style="opacity: 0.8; stroke-width: 0px; fill: rgb(255, 127, 14); fill-opacity: 1;" d="M2.5,0A2.5,2.5 0 1,1 0,-2.5A2.5,2.5 0 0,1 2.5,0Z"/><path class="point plotly-customdata" transform="translate(359.05,49.12)" style="opacity: 0.8; stroke-width: 0px; fill: rgb(255, 127, 14); fill-opacity: 1;" d="M2.5,0A2.5,2.5 0 1,1 0,-2.5A2.5,2.5 0 0,1 2.5,0Z"/><path class="point plotly-customdata" transform="translate(338.06,86.15)" style="opacity: 0.8; stroke-width: 0px; fill: rgb(255, 127, 14); fill-opacity: 1;" d="M2.5,0A2.5,2.5 0 1,1 0,-2.5A2.5,2.5 0 0,1 2.5,0Z"/><path class="point plotly-customdata" transform="translate(208.38,242.06)" style="opacity: 0.8; stroke-width: 0px; fill: rgb(255, 127, 14); fill-opacity: 1;" d="M2.5,0A2.5,2.5 0 1,1 0,-2.5A2.5,2.5 0 0,1 2.5,0Z"/><path class="point plotly-customdata" transform="translate(336.79,50.17)" style="opacity: 0.8; stroke-width: 0px; fill: rgb(255, 127, 14); fill-opacity: 1;" d="M2.5,0A2.5,2.5 0 1,1 0,-2.5A2.5,2.5 0 0,1 2.5,0Z"/><path class="point plotly-customdata" transform="translate(334.2,103.59)" style="opacity: 0.8; stroke-width: 0px; fill: rgb(255, 127, 14); fill-opacity: 1;" d="M2.5,0A2.5,2.5 0 1,1 0,-2.5A2.5,2.5 0 0,1 2.5,0Z"/><path class="point plotly-customdata" transform="translate(354.11,75.43)" style="opacity: 0.8; stroke-width: 0px; fill: rgb(255, 127, 14); fill-opacity: 1;" d="M2.5,0A2.5,2.5 0 1,1 0,-2.5A2.5,2.5 0 0,1 2.5,0Z"/><path class="point plotly-customdata" transform="translate(338.02,79.57)" style="opacity: 0.8; stroke-width: 0px; fill: rgb(255, 127, 14); fill-opacity: 1;" d="M2.5,0A2.5,2.5 0 1,1 0,-2.5A2.5,2.5 0 0,1 2.5,0Z"/><path class="point plotly-customdata" transform="translate(383.83,81.43)" style="opacity: 0.8; stroke-width: 0px; fill: rgb(255, 127, 14); fill-opacity: 1;" d="M2.5,0A2.5,2.5 0 1,1 0,-2.5A2.5,2.5 0 0,1 2.5,0Z"/><path class="point plotly-customdata" transform="translate(335.7,76.36)" style="opacity: 0.8; stroke-width: 0px; fill: rgb(255, 127, 14); fill-opacity: 1;" d="M2.5,0A2.5,2.5 0 1,1 0,-2.5A2.5,2.5 0 0,1 2.5,0Z"/><path class="point plotly-customdata" transform="translate(355.07,43.42)" style="opacity: 0.8; stroke-width: 0px; fill: rgb(255, 127, 14); fill-opacity: 1;" d="M2.5,0A2.5,2.5 0 1,1 0,-2.5A2.5,2.5 0 0,1 2.5,0Z"/><path class="point plotly-customdata" transform="translate(349.86,27.04)" style="opacity: 0.8; stroke-width: 0px; fill: rgb(255, 127, 14); fill-opacity: 1;" d="M2.5,0A2.5,2.5 0 1,1 0,-2.5A2.5,2.5 0 0,1 2.5,0Z"/><path class="point plotly-customdata" transform="translate(363.15,53.83)" style="opacity: 0.8; stroke-width: 0px; fill: rgb(255, 127, 14); fill-opacity: 1;" d="M2.5,0A2.5,2.5 0 1,1 0,-2.5A2.5,2.5 0 0,1 2.5,0Z"/><path class="point plotly-customdata" transform="translate(333.83,50.89)" style="opacity: 0.8; stroke-width: 0px; fill: rgb(255, 127, 14); fill-opacity: 1;" d="M2.5,0A2.5,2.5 0 1,1 0,-2.5A2.5,2.5 0 0,1 2.5,0Z"/><path class="point plotly-customdata" transform="translate(384.75,91.88)" style="opacity: 0.8; stroke-width: 0px; fill: rgb(255, 127, 14); fill-opacity: 1;" d="M2.5,0A2.5,2.5 0 1,1 0,-2.5A2.5,2.5 0 0,1 2.5,0Z"/><path class="point plotly-customdata" transform="translate(344.62,72.3)" style="opacity: 0.8; stroke-width: 0px; fill: rgb(255, 127, 14); fill-opacity: 1;" d="M2.5,0A2.5,2.5 0 1,1 0,-2.5A2.5,2.5 0 0,1 2.5,0Z"/><path class="point plotly-customdata" transform="translate(364.19,97.17)" style="opacity: 0.8; stroke-width: 0px; fill: rgb(255, 127, 14); fill-opacity: 1;" d="M2.5,0A2.5,2.5 0 1,1 0,-2.5A2.5,2.5 0 0,1 2.5,0Z"/><path class="point plotly-customdata" transform="translate(340.21,46.33)" style="opacity: 0.8; stroke-width: 0px; fill: rgb(255, 127, 14); fill-opacity: 1;" d="M2.5,0A2.5,2.5 0 1,1 0,-2.5A2.5,2.5 0 0,1 2.5,0Z"/><path class="point plotly-customdata" transform="translate(363.31,71.97)" style="opacity: 0.8; stroke-width: 0px; fill: rgb(255, 127, 14); fill-opacity: 1;" d="M2.5,0A2.5,2.5 0 1,1 0,-2.5A2.5,2.5 0 0,1 2.5,0Z"/><path class="point plotly-customdata" transform="translate(351.54,35.64)" style="opacity: 0.8; stroke-width: 0px; fill: rgb(255, 127, 14); fill-opacity: 1;" d="M2.5,0A2.5,2.5 0 1,1 0,-2.5A2.5,2.5 0 0,1 2.5,0Z"/><path class="point plotly-customdata" transform="translate(349.63,97.72)" style="opacity: 0.8; stroke-width: 0px; fill: rgb(255, 127, 14); fill-opacity: 1;" d="M2.5,0A2.5,2.5 0 1,1 0,-2.5A2.5,2.5 0 0,1 2.5,0Z"/><path class="point plotly-customdata" transform="translate(344.34,82.26)" style="opacity: 0.8; stroke-width: 0px; fill: rgb(255, 127, 14); fill-opacity: 1;" d="M2.5,0A2.5,2.5 0 1,1 0,-2.5A2.5,2.5 0 0,1 2.5,0Z"/><path class="point plotly-customdata" transform="translate(349.22,85.05)" style="opacity: 0.8; stroke-width: 0px; fill: rgb(255, 127, 14); fill-opacity: 1;" d="M2.5,0A2.5,2.5 0 1,1 0,-2.5A2.5,2.5 0 0,1 2.5,0Z"/><path class="point plotly-customdata" transform="translate(358.11,89.34)" style="opacity: 0.8; stroke-width: 0px; fill: rgb(255, 127, 14); fill-opacity: 1;" d="M2.5,0A2.5,2.5 0 1,1 0,-2.5A2.5,2.5 0 0,1 2.5,0Z"/><path class="point plotly-customdata" transform="translate(371.26,90.48)" style="opacity: 0.8; stroke-width: 0px; fill: rgb(255, 127, 14); fill-opacity: 1;" d="M2.5,0A2.5,2.5 0 1,1 0,-2.5A2.5,2.5 0 0,1 2.5,0Z"/><path class="point plotly-customdata" transform="translate(358.44,87.06)" style="opacity: 0.8; stroke-width: 0px; fill: rgb(255, 127, 14); fill-opacity: 1;" d="M2.5,0A2.5,2.5 0 1,1 0,-2.5A2.5,2.5 0 0,1 2.5,0Z"/><path class="point plotly-customdata" transform="translate(360.54,58.66)" style="opacity: 0.8; stroke-width: 0px; fill: rgb(255, 127, 14); fill-opacity: 1;" d="M2.5,0A2.5,2.5 0 1,1 0,-2.5A2.5,2.5 0 0,1 2.5,0Z"/><path class="point plotly-customdata" transform="translate(350.42,109.96)" style="opacity: 0.8; stroke-width: 0px; fill: rgb(255, 127, 14); fill-opacity: 1;" d="M2.5,0A2.5,2.5 0 1,1 0,-2.5A2.5,2.5 0 0,1 2.5,0Z"/><path class="point plotly-customdata" transform="translate(341.6,81.99)" style="opacity: 0.8; stroke-width: 0px; fill: rgb(255, 127, 14); fill-opacity: 1;" d="M2.5,0A2.5,2.5 0 1,1 0,-2.5A2.5,2.5 0 0,1 2.5,0Z"/><path class="point plotly-customdata" transform="translate(360.29,92.91)" style="opacity: 0.8; stroke-width: 0px; fill: rgb(255, 127, 14); fill-opacity: 1;" d="M2.5,0A2.5,2.5 0 1,1 0,-2.5A2.5,2.5 0 0,1 2.5,0Z"/><path class="point plotly-customdata" transform="translate(354.57,89.21)" style="opacity: 0.8; stroke-width: 0px; fill: rgb(255, 127, 14); fill-opacity: 1;" d="M2.5,0A2.5,2.5 0 1,1 0,-2.5A2.5,2.5 0 0,1 2.5,0Z"/><path class="point plotly-customdata" transform="translate(362.02,67.85)" style="opacity: 0.8; stroke-width: 0px; fill: rgb(255, 127, 14); fill-opacity: 1;" d="M2.5,0A2.5,2.5 0 1,1 0,-2.5A2.5,2.5 0 0,1 2.5,0Z"/><path class="point plotly-customdata" transform="translate(202.25,395.87)" style="opacity: 0.8; stroke-width: 0px; fill: rgb(255, 127, 14); fill-opacity: 1;" d="M2.5,0A2.5,2.5 0 1,1 0,-2.5A2.5,2.5 0 0,1 2.5,0Z"/></g><g class="text"/></g></g></g></g><g class="zerolinelayer-above"/><path class="xlines-above crisp" style="fill: none; stroke-width: 1px; stroke: rgb(36, 36, 36); stroke-opacity: 1;" d="M79,520.5H667"/><path class="ylines-above crisp" style="fill: none; stroke-width: 1px; stroke: rgb(36, 36, 36); stroke-opacity: 1;" d="M79.5,100V520"/><g class="overlines-above"/><g class="xaxislayer-above"><path class="xtick ticks crisp" style="stroke: rgb(68, 68, 68); stroke-opacity: 1; stroke-width: 1px;" d="M0,521v5" transform="translate(143.71,0)"/><path class="xtick ticks crisp" style="stroke: rgb(68, 68, 68); stroke-opacity: 1; stroke-width: 1px;" d="M0,521v5" transform="translate(256.94,0)"/><path class="xtick ticks crisp" style="stroke: rgb(68, 68, 68); stroke-opacity: 1; stroke-width: 1px;" d="M0,521v5" transform="translate(370.18,0)"/><path class="xtick ticks crisp" style="stroke: rgb(68, 68, 68); stroke-opacity: 1; stroke-width: 1px;" d="M0,521v5" transform="translate(483.41,0)"/><path class="xtick ticks crisp" style="stroke: rgb(68, 68, 68); stroke-opacity: 1; stroke-width: 1px;" d="M0,521v5" transform="translate(596.65,0)"/><g class="xtick"><text text-anchor="middle" x="0" y="540.4" style="font-family: TOBESTRIPPEDOpen SansTOBESTRIPPED, verdana, arial, sans-serif; font-size: 12px; fill: rgb(36, 36, 36); fill-opacity: 1; white-space: pre;" transform="translate(143.71,0)">14</text></g><g class="xtick"><text text-anchor="middle" x="0" y="540.4" style="font-family: TOBESTRIPPEDOpen SansTOBESTRIPPED, verdana, arial, sans-serif; font-size: 12px; fill: rgb(36, 36, 36); fill-opacity: 1; white-space: pre;" transform="translate(256.94,0)">16</text></g><g class="xtick"><text text-anchor="middle" x="0" y="540.4" style="font-family: TOBESTRIPPEDOpen SansTOBESTRIPPED, verdana, arial, sans-serif; font-size: 12px; fill: rgb(36, 36, 36); fill-opacity: 1; white-space: pre;" transform="translate(370.18,0)">18</text></g><g class="xtick"><text text-anchor="middle" x="0" y="540.4" style="font-family: TOBESTRIPPEDOpen SansTOBESTRIPPED, verdana, arial, sans-serif; font-size: 12px; fill: rgb(36, 36, 36); fill-opacity: 1; white-space: pre;" transform="translate(483.41,0)">20</text></g><g class="xtick"><text text-anchor="middle" x="0" y="540.4" style="font-family: TOBESTRIPPEDOpen SansTOBESTRIPPED, verdana, arial, sans-serif; font-size: 12px; fill: rgb(36, 36, 36); fill-opacity: 1; white-space: pre;" transform="translate(596.65,0)">22</text></g></g><g class="yaxislayer-above"><path class="ytick ticks crisp" style="stroke: rgb(68, 68, 68); stroke-opacity: 1; stroke-width: 1px;" d="M79,0h-5" transform="translate(0,482.75)"/><path class="ytick ticks crisp" style="stroke: rgb(68, 68, 68); stroke-opacity: 1; stroke-width: 1px;" d="M79,0h-5" transform="translate(0,426.13)"/><path class="ytick ticks crisp" style="stroke: rgb(68, 68, 68); stroke-opacity: 1; stroke-width: 1px;" d="M79,0h-5" transform="translate(0,369.51)"/><path class="ytick ticks crisp" style="stroke: rgb(68, 68, 68); stroke-opacity: 1; stroke-width: 1px;" d="M79,0h-5" transform="translate(0,312.9)"/><path class="ytick ticks crisp" style="stroke: rgb(68, 68, 68); stroke-opacity: 1; stroke-width: 1px;" d="M79,0h-5" transform="translate(0,256.28)"/><path class="ytick ticks crisp" style="stroke: rgb(68, 68, 68); stroke-opacity: 1; stroke-width: 1px;" d="M79,0h-5" transform="translate(0,199.66)"/><path class="ytick ticks crisp" style="stroke: rgb(68, 68, 68); stroke-opacity: 1; stroke-width: 1px;" d="M79,0h-5" transform="translate(0,143.05)"/><g class="ytick"><text text-anchor="end" x="71.6" y="4.199999999999999" style="font-family: TOBESTRIPPEDOpen SansTOBESTRIPPED, verdana, arial, sans-serif; font-size: 12px; fill: rgb(36, 36, 36); fill-opacity: 1; white-space: pre;" transform="translate(0,482.75)">1</text></g><g class="ytick"><text text-anchor="end" x="71.6" y="4.199999999999999" style="font-family: TOBESTRIPPEDOpen SansTOBESTRIPPED, verdana, arial, sans-serif; font-size: 12px; fill: rgb(36, 36, 36); fill-opacity: 1; white-space: pre;" transform="translate(0,426.13)">2</text></g><g class="ytick"><text text-anchor="end" x="71.6" y="4.199999999999999" style="font-family: TOBESTRIPPEDOpen SansTOBESTRIPPED, verdana, arial, sans-serif; font-size: 12px; fill: rgb(36, 36, 36); fill-opacity: 1; white-space: pre;" transform="translate(0,369.51)">3</text></g><g class="ytick"><text text-anchor="end" x="71.6" y="4.199999999999999" style="font-family: TOBESTRIPPEDOpen SansTOBESTRIPPED, verdana, arial, sans-serif; font-size: 12px; fill: rgb(36, 36, 36); fill-opacity: 1; white-space: pre;" transform="translate(0,312.9)">4</text></g><g class="ytick"><text text-anchor="end" x="71.6" y="4.199999999999999" style="font-family: TOBESTRIPPEDOpen SansTOBESTRIPPED, verdana, arial, sans-serif; font-size: 12px; fill: rgb(36, 36, 36); fill-opacity: 1; white-space: pre;" transform="translate(0,256.28)">5</text></g><g class="ytick"><text text-anchor="end" x="71.6" y="4.199999999999999" style="font-family: TOBESTRIPPEDOpen SansTOBESTRIPPED, verdana, arial, sans-serif; font-size: 12px; fill: rgb(36, 36, 36); fill-opacity: 1; white-space: pre;" transform="translate(0,199.66)">6</text></g><g class="ytick"><text text-anchor="end" x="71.6" y="4.199999999999999" style="font-family: TOBESTRIPPEDOpen SansTOBESTRIPPED, verdana, arial, sans-serif; font-size: 12px; fill: rgb(36, 36, 36); fill-opacity: 1; white-space: pre;" transform="translate(0,143.05)">7</text></g></g><g class="overaxes-above"/></g></g><g class="polarlayer"/><g class="smithlayer"/><g class="ternarylayer"/><g class="geolayer"/><g class="funnelarealayer"/><g class="pielayer"/><g class="iciclelayer"/><g class="treemaplayer"/><g class="sunburstlayer"/><g class="glimages"/><defs id="topdefs-9c2841"><g class="clips"/><clipPath id="legend9c2841"><rect width="109" height="219" x="0" y="0"/></clipPath></defs><g class="layer-above"><g class="imagelayer"/><g class="shapelayer"/></g><g class="infolayer"><g class="legend" pointer-events="all" transform="translate(678.74,100)"><rect class="bg" shape-rendering="crispEdges" style="stroke: rgb(68, 68, 68); stroke-opacity: 1; fill: rgb(255, 255, 255); fill-opacity: 1; stroke-width: 0px;" width="109" height="219" x="0" y="0"/><g class="scrollbox" transform="" clip-path="url(#legend9c2841)"><g class="groups"><g class="traces" style="opacity: 1;" transform="translate(0,14.5)"><text class="legendtext" text-anchor="start" style="font-family: TOBESTRIPPEDOpen SansTOBESTRIPPED, verdana, arial, sans-serif; font-size: 12px; fill: rgb(36, 36, 36); fill-opacity: 1; white-space: pre;" x="40" y="4.680000000000001">England</text><g class="layers" style="opacity: 1;"><g class="legendfill"/><g class="legendlines"/><g class="legendsymbols"><g class="legendpoints"><path class="scatterpts" transform="translate(20,0)" style="opacity: 0.8; stroke-width: 0px; fill: rgb(31, 119, 180); fill-opacity: 1;" d="M2.5,0A2.5,2.5 0 1,1 0,-2.5A2.5,2.5 0 0,1 2.5,0Z"/></g></g></g><rect class="legendtoggle" style="fill: rgb(0, 0, 0); fill-opacity: 0;" x="0" y="-9.5" width="103.69999694824219" height="19"/></g><g class="traces" style="opacity: 0.5;" transform="translate(0,33.5)"><text class="legendtext" text-anchor="start" style="font-family: TOBESTRIPPEDOpen SansTOBESTRIPPED, verdana, arial, sans-serif; font-size: 12px; fill: rgb(36, 36, 36); fill-opacity: 1; white-space: pre;" x="40" y="4.680000000000001">Germany</text><g class="layers" style="opacity: 1;"><g class="legendfill"/><g class="legendlines"/><g class="legendsymbols"><g class="legendpoints"><path class="scatterpts" transform="translate(20,0)" style="opacity: 0.8; stroke-width: 0px; fill: rgb(188, 189, 34); fill-opacity: 1;" d="M2.5,0A2.5,2.5 0 1,1 0,-2.5A2.5,2.5 0 0,1 2.5,0Z"/></g></g></g><rect class="legendtoggle" style="fill: rgb(0, 0, 0); fill-opacity: 0;" x="0" y="-9.5" width="103.69999694824219" height="19"/></g><g class="traces" style="opacity: 0.5;" transform="translate(0,52.5)"><text class="legendtext" text-anchor="start" style="font-family: TOBESTRIPPEDOpen SansTOBESTRIPPED, verdana, arial, sans-serif; font-size: 12px; fill: rgb(36, 36, 36); fill-opacity: 1; white-space: pre;" x="40" y="4.680000000000001">Gibraltar</text><g class="layers" style="opacity: 1;"><g class="legendfill"/><g class="legendlines"/><g class="legendsymbols"><g class="legendpoints"><path class="scatterpts" transform="translate(20,0)" style="opacity: 0.8; stroke-width: 0px; fill: rgb(214, 39, 40); fill-opacity: 1;" d="M2.5,0A2.5,2.5 0 1,1 0,-2.5A2.5,2.5 0 0,1 2.5,0Z"/></g></g></g><rect class="legendtoggle" style="fill: rgb(0, 0, 0); fill-opacity: 0;" x="0" y="-9.5" width="103.69999694824219" height="19"/></g><g class="traces" style="opacity: 0.5;" transform="translate(0,71.5)"><text class="legendtext" text-anchor="start" style="font-family: TOBESTRIPPEDOpen SansTOBESTRIPPED, verdana, arial, sans-serif; font-size: 12px; fill: rgb(36, 36, 36); fill-opacity: 1; white-space: pre;" x="40" y="4.680000000000001">India</text><g class="layers" style="opacity: 1;"><g class="legendfill"/><g class="legendlines"/><g class="legendsymbols"><g class="legendpoints"><path class="scatterpts" transform="translate(20,0)" style="opacity: 0.8; stroke-width: 0px; fill: rgb(140, 86, 75); fill-opacity: 1;" d="M2.5,0A2.5,2.5 0 1,1 0,-2.5A2.5,2.5 0 0,1 2.5,0Z"/></g></g></g><rect class="legendtoggle" style="fill: rgb(0, 0, 0); fill-opacity: 0;" x="0" y="-9.5" width="103.69999694824219" height="19"/></g><g class="traces" style="opacity: 0.5;" transform="translate(0,90.5)"><text class="legendtext" text-anchor="start" style="font-family: TOBESTRIPPEDOpen SansTOBESTRIPPED, verdana, arial, sans-serif; font-size: 12px; fill: rgb(36, 36, 36); fill-opacity: 1; white-space: pre;" x="40" y="4.680000000000001">Malta</text><g class="layers" style="opacity: 1;"><g class="legendfill"/><g class="legendlines"/><g class="legendsymbols"><g class="legendpoints"><path class="scatterpts" transform="translate(20,0)" style="opacity: 0.8; stroke-width: 0px; fill: rgb(148, 103, 189); fill-opacity: 1;" d="M2.5,0A2.5,2.5 0 1,1 0,-2.5A2.5,2.5 0 0,1 2.5,0Z"/></g></g></g><rect class="legendtoggle" style="fill: rgb(0, 0, 0); fill-opacity: 0;" x="0" y="-9.5" width="103.69999694824219" height="19"/></g><g class="traces" style="opacity: 0.5;" transform="translate(0,109.5)"><text class="legendtext" text-anchor="start" style="font-family: TOBESTRIPPEDOpen SansTOBESTRIPPED, verdana, arial, sans-serif; font-size: 12px; fill: rgb(36, 36, 36); fill-opacity: 1; white-space: pre;" x="40" y="4.680000000000001">Other</text><g class="layers" style="opacity: 1;"><g class="legendfill"/><g class="legendlines"/><g class="legendsymbols"><g class="legendpoints"><path class="scatterpts" transform="translate(20,0)" style="opacity: 0.8; stroke-width: 0px; fill: rgb(196, 156, 148); fill-opacity: 1;" d="M2.5,0A2.5,2.5 0 1,1 0,-2.5A2.5,2.5 0 0,1 2.5,0Z"/></g></g></g><rect class="legendtoggle" style="fill: rgb(0, 0, 0); fill-opacity: 0;" x="0" y="-9.5" width="103.69999694824219" height="19"/></g><g class="traces" style="opacity: 0.5;" transform="translate(0,128.5)"><text class="legendtext" text-anchor="start" style="font-family: TOBESTRIPPEDOpen SansTOBESTRIPPED, verdana, arial, sans-serif; font-size: 12px; fill: rgb(36, 36, 36); fill-opacity: 1; white-space: pre;" x="40" y="4.680000000000001">Puerto Rico</text><g class="layers" style="opacity: 1;"><g class="legendfill"/><g class="legendlines"/><g class="legendsymbols"><g class="legendpoints"><path class="scatterpts" transform="translate(20,0)" style="opacity: 0.8; stroke-width: 0px; fill: rgb(227, 119, 194); fill-opacity: 1;" d="M2.5,0A2.5,2.5 0 1,1 0,-2.5A2.5,2.5 0 0,1 2.5,0Z"/></g></g></g><rect class="legendtoggle" style="fill: rgb(0, 0, 0); fill-opacity: 0;" x="0" y="-9.5" width="103.69999694824219" height="19"/></g><g class="traces" style="opacity: 1;" transform="translate(0,147.5)"><text class="legendtext" text-anchor="start" style="font-family: TOBESTRIPPEDOpen SansTOBESTRIPPED, verdana, arial, sans-serif; font-size: 12px; fill: rgb(36, 36, 36); fill-opacity: 1; white-space: pre;" x="40" y="4.680000000000001">Scotland</text><g class="layers" style="opacity: 1;"><g class="legendfill"/><g class="legendlines"/><g class="legendsymbols"><g class="legendpoints"><path class="scatterpts" transform="translate(20,0)" style="opacity: 0.8; stroke-width: 0px; fill: rgb(255, 127, 14); fill-opacity: 1;" d="M2.5,0A2.5,2.5 0 1,1 0,-2.5A2.5,2.5 0 0,1 2.5,0Z"/></g></g></g><rect class="legendtoggle" style="fill: rgb(0, 0, 0); fill-opacity: 0;" x="0" y="-9.5" width="103.69999694824219" height="19"/></g><g class="traces" style="opacity: 0.5;" transform="translate(0,166.5)"><text class="legendtext" text-anchor="start" style="font-family: TOBESTRIPPEDOpen SansTOBESTRIPPED, verdana, arial, sans-serif; font-size: 12px; fill: rgb(36, 36, 36); fill-opacity: 1; white-space: pre;" x="40" y="4.680000000000001">Slovenia</text><g class="layers" style="opacity: 1;"><g class="legendfill"/><g class="legendlines"/><g class="legendsymbols"><g class="legendpoints"><path class="scatterpts" transform="translate(20,0)" style="opacity: 0.8; stroke-width: 0px; fill: rgb(127, 127, 127); fill-opacity: 1;" d="M2.5,0A2.5,2.5 0 1,1 0,-2.5A2.5,2.5 0 0,1 2.5,0Z"/></g></g></g><rect class="legendtoggle" style="fill: rgb(0, 0, 0); fill-opacity: 0;" x="0" y="-9.5" width="103.69999694824219" height="19"/></g><g class="traces" style="opacity: 0.5;" transform="translate(0,185.5)"><text class="legendtext" text-anchor="start" style="font-family: TOBESTRIPPEDOpen SansTOBESTRIPPED, verdana, arial, sans-serif; font-size: 12px; fill: rgb(36, 36, 36); fill-opacity: 1; white-space: pre;" x="40" y="4.680000000000001">Sweden</text><g class="layers" style="opacity: 1;"><g class="legendfill"/><g class="legendlines"/><g class="legendsymbols"><g class="legendpoints"><path class="scatterpts" transform="translate(20,0)" style="opacity: 0.8; stroke-width: 0px; fill: rgb(23, 190, 207); fill-opacity: 1;" d="M2.5,0A2.5,2.5 0 1,1 0,-2.5A2.5,2.5 0 0,1 2.5,0Z"/></g></g></g><rect class="legendtoggle" style="fill: rgb(0, 0, 0); fill-opacity: 0;" x="0" y="-9.5" width="103.69999694824219" height="19"/></g><g class="traces" style="opacity: 0.5;" transform="translate(0,204.5)"><text class="legendtext" text-anchor="start" style="font-family: TOBESTRIPPEDOpen SansTOBESTRIPPED, verdana, arial, sans-serif; font-size: 12px; fill: rgb(36, 36, 36); fill-opacity: 1; white-space: pre;" x="40" y="4.680000000000001">US</text><g class="layers" style="opacity: 1;"><g class="legendfill"/><g class="legendlines"/><g class="legendsymbols"><g class="legendpoints"><path class="scatterpts" transform="translate(20,0)" style="opacity: 0.8; stroke-width: 0px; fill: rgb(44, 160, 44); fill-opacity: 1;" d="M2.5,0A2.5,2.5 0 1,1 0,-2.5A2.5,2.5 0 0,1 2.5,0Z"/></g></g></g><rect class="legendtoggle" style="fill: rgb(0, 0, 0); fill-opacity: 0;" x="0" y="-9.5" width="103.69999694824219" height="19"/></g></g></g><rect class="scrollbar" rx="20" ry="3" width="0" height="0" style="fill: rgb(128, 139, 164); fill-opacity: 1;" x="0" y="0"/></g><g class="g-gtitle"/><g class="g-xtitle"/><g class="g-ytitle"/></g></svg>